<svg width="100%" height="100%" viewBox="0 0 15 9" fill="none" xmlns="http://www.w3.org/2000/svg">
<path d="M5.44467 8.11467L4.15667 7.76933L4.68133 5.81C3.89605 5.52021 3.16617 5.09811 2.52333 4.562L1.088 5.998L0.145333 5.05533L1.58067 3.61933C0.770128 2.64846 0.22548 1.48381 0 0.239333L1.312 0C1.56363 1.38254 2.29245 2.63294 3.37142 3.53325C4.45039 4.43356 5.81108 4.92669 7.21633 4.92669C8.62159 4.92669 9.98228 4.43356 11.0612 3.53325C12.1402 2.63294 12.869 1.38254 13.1207 0L14.4327 0.238667C14.2071 1.48345 13.6622 2.64834 12.8513 3.61933L14.2873 5.05533L13.3447 5.998L11.9087 4.562C11.2658 5.09811 10.536 5.52021 9.75067 5.81L10.276 7.77L8.988 8.11467L8.46267 6.15467C7.63765 6.29699 6.79435 6.29699 5.96933 6.15467L5.44467 8.11467Z" fill="currentColor"/>
</svg>
