<svg width="100%" height="100%" viewBox="0 0 16 16" fill="none" xmlns="http://www.w3.org/2000/svg">
<path d="M6.22982 4.40682L4.94182 4.75215L5.46649 6.71148C4.6812 7.00127 3.95133 7.42337 3.30849 7.95948L1.87316 6.52348L0.93049 7.46615L2.36582 8.90215C1.55528 9.87303 1.01064 11.0377 0.785156 12.2822L2.09716 12.5215C2.34879 11.1389 3.07761 9.88855 4.15658 8.98823C5.23554 8.08792 6.59624 7.59479 8.00149 7.59479C9.40674 7.59479 10.7674 8.08792 11.8464 8.98823C12.9254 9.88855 13.6542 11.1389 13.9058 12.5215L15.2178 12.2828C14.9923 11.038 14.4474 9.87315 13.6365 8.90215L15.0725 7.46615L14.1298 6.52348L12.6938 7.95948C12.051 7.42337 11.3211 7.00127 10.5358 6.71148L11.0612 4.75148L9.77316 4.40682L9.24782 6.36682C8.42281 6.22449 7.57951 6.22449 6.75449 6.36682L6.22982 4.40682Z" fill="currentColor"/>
<path d="M5 12C5 11.2044 5.31607 10.4413 5.87868 9.87868C6.44129 9.31607 7.20435 9 8 9C8.79565 9 9.55871 9.31607 10.1213 9.87868C10.6839 10.4413 11 11.2044 11 12C11 12.7956 10.6839 13.5587 10.1213 14.1213C9.55871 14.6839 8.79565 15 8 15C7.20435 15 6.44129 14.6839 5.87868 14.1213C5.31607 13.5587 5 12.7956 5 12ZM8 10.2C7.52261 10.2 7.06477 10.3896 6.72721 10.7272C6.38964 11.0648 6.2 11.5226 6.2 12C6.2 12.4774 6.38964 12.9352 6.72721 13.2728C7.06477 13.6104 7.52261 13.8 8 13.8C8.47739 13.8 8.93523 13.6104 9.27279 13.2728C9.61036 12.9352 9.8 12.4774 9.8 12C9.8 11.5226 9.61036 11.0648 9.27279 10.7272C8.93523 10.3896 8.47739 10.2 8 10.2Z" fill="currentColor"/>
</svg>
