<svg width="100%" height="100%" viewBox="0 0 24 24" fill="none" xmlns="http://www.w3.org/2000/svg">
<path d="M14.1996 11.8094L10.3496 14.0094V9.60938L14.1996 11.8094Z" 
  fill="currentColor" 
  stroke="currentColor" 
  stroke-width="1.5" 
  stroke-linecap="round" 
  stroke-linejoin="round"/>
<path d="M1 12.5888V11.0312C1 7.8467 1 6.2539 1.9955 5.2298C2.9921 4.2046 4.5607 4.1606 7.6968 4.0715C9.1818 4.0297 10.6998 4 12 4C13.3002 4 14.8171 4.0297 16.3032 4.0715C19.4393 4.1606 21.0079 4.2046 22.0034 5.2298C22.9989 6.255 23 7.8478 23 11.0312V12.5877C23 15.7733 23 17.365 22.0045 18.3902C21.0079 19.4143 19.4404 19.4594 16.3032 19.5474C14.8182 19.5903 13.3002 19.62 12 19.62C10.6998 19.62 9.1829 19.5903 7.6968 19.5474C4.5607 19.4594 2.9921 19.4154 1.9955 18.3902C0.9989 17.365 1 15.7722 1 12.5888Z" 
  stroke="currentColor" 
  stroke-width="1.5"/>
</svg>