<svg width="51" height="51" viewBox="0 0 51 51" fill="none" xmlns="http://www.w3.org/2000/svg">
<rect width="51" height="51" rx="25.5" fill="#FFDDDE"/>
<g clip-path="url(#clip0_1193_4102)">
<path d="M26 14C23.835 13.9985 21.7345 14.7364 20.0462 16.0916C18.3579 17.4469 17.1832 19.3381 16.7165 21.4522C16.2498 23.5662 16.5192 25.7763 17.4801 27.7163C18.4409 29.6563 20.0356 31.21 22 32.12C22.5385 32.369 22.971 32.8014 23.22 33.34L25.09 37.42C25.1695 37.5946 25.2976 37.7426 25.459 37.8464C25.6203 37.9502 25.8081 38.0054 26 38.0054C26.1918 38.0054 26.3796 37.9502 26.541 37.8464C26.7024 37.7426 26.8304 37.5946 26.91 37.42L28.78 33.34C29.029 32.8014 29.4614 32.369 30 32.12C31.9644 31.21 33.5591 29.6563 34.5199 27.7163C35.4807 25.7763 35.7501 23.5662 35.2835 21.4522C34.8168 19.3381 33.642 17.4469 31.9537 16.0916C30.2655 14.7364 28.1649 13.9985 26 14ZM26 29.5C24.8133 29.5 23.6533 29.1481 22.6666 28.4888C21.6799 27.8295 20.9108 26.8925 20.4567 25.7961C20.0026 24.6997 19.8838 23.4933 20.1153 22.3295C20.3468 21.1656 20.9182 20.0965 21.7573 19.2574C22.5965 18.4182 23.6656 17.8468 24.8294 17.6153C25.9933 17.3838 27.1997 17.5026 28.2961 17.9567C29.3924 18.4109 30.3295 19.1799 30.9888 20.1666C31.6481 21.1533 32 22.3133 32 23.5C32 25.0913 31.3678 26.6174 30.2426 27.7426C29.1174 28.8679 27.5913 29.5 26 29.5Z" fill="#B63E41"/>
<path d="M27.87 21.1601L25.32 24.5701C25.2968 24.5989 25.268 24.6226 25.2353 24.6398C25.2027 24.657 25.1668 24.6673 25.13 24.6701C25.0943 24.6717 25.0588 24.6654 25.0259 24.6515C24.9931 24.6377 24.9637 24.6167 24.94 24.5901L23.84 23.5001C23.6487 23.3363 23.4026 23.2507 23.1509 23.2604C22.8992 23.2701 22.6605 23.3744 22.4824 23.5525C22.3043 23.7306 22.2 23.9694 22.1903 24.221C22.1805 24.4727 22.2661 24.7188 22.43 24.9101L23.93 26.4101C24.0893 26.5753 24.2804 26.7066 24.4918 26.7959C24.7032 26.8853 24.9305 26.9309 25.16 26.9301C25.4332 26.9309 25.7029 26.868 25.9476 26.7465C26.1923 26.625 26.4054 26.4482 26.57 26.2301L29.47 22.3501C29.6138 22.1416 29.6732 21.8863 29.6361 21.6357C29.5989 21.3851 29.4681 21.1579 29.27 21.0001C29.0627 20.8366 28.7993 20.7617 28.537 20.7916C28.2747 20.8216 28.035 20.9541 27.87 21.1601Z" fill="#B63E41"/>
</g>
<defs>
<clipPath id="clip0_1193_4102">
<rect width="24" height="24" fill="white" transform="translate(14 14)"/>
</clipPath>
</defs>
</svg>
