<svg width="51" height="51" viewBox="0 0 51 51" fill="none" xmlns="http://www.w3.org/2000/svg">
<rect width="51" height="51" rx="25.5" fill="#FFDDDE"/>
<path d="M23.707 18.793C23.414 18.5 22.943 18.5 22 18.5H21.75V17C21.75 16.8011 21.671 16.6103 21.5303 16.4697C21.3897 16.329 21.1989 16.25 21 16.25C20.8011 16.25 20.6103 16.329 20.4697 16.4697C20.329 16.6103 20.25 16.8011 20.25 17V18.5H20C19.057 18.5 18.586 18.5 18.293 18.793C18 19.086 18 19.557 18 20.5V20.704C18.2033 20.652 18.4053 20.613 18.606 20.587C19.25 20.5 20.045 20.5 20.91 20.5H21.089C21.954 20.5 22.748 20.5 23.393 20.587C23.5943 20.6123 23.7963 20.6513 23.999 20.704V20.5C23.999 19.557 24 19.086 23.707 18.793Z" fill="#B63E41"/>
<path fill-rule="evenodd" clip-rule="evenodd" d="M16 35.2502C15.8011 35.2502 15.6103 35.3292 15.4697 35.4698C15.329 35.6105 15.25 35.8013 15.25 36.0002C15.25 36.1991 15.329 36.3899 15.4697 36.5305C15.6103 36.6712 15.8011 36.7502 16 36.7502H36C36.1989 36.7502 36.3897 36.6712 36.5303 36.5305C36.671 36.3899 36.75 36.1991 36.75 36.0002C36.75 35.8013 36.671 35.6105 36.5303 35.4698C36.3897 35.3292 36.1989 35.2502 36 35.2502H35V21.7722C35 20.4322 35 19.7612 34.644 19.2472C34.288 18.7332 33.66 18.4972 32.404 18.0272C29.949 17.1062 28.722 16.6462 27.861 17.2422C27 17.8402 27 19.1502 27 21.7722V24.5002H27.09C27.955 24.5002 28.749 24.5002 29.394 24.5872C30.105 24.6822 30.857 24.9072 31.474 25.5252C32.093 26.1432 32.318 26.8952 32.414 27.6052C32.5 28.2512 32.5 29.0452 32.5 29.9112V35.2502H31V30.0002C31 28.1142 31 27.1722 30.414 26.5862C29.828 26.0002 28.886 26.0002 27 26.0002H25C23.114 26.0002 22.172 26.0002 21.586 26.5862C21 27.1722 21 28.1142 21 30.0002V35.2502H19.5V29.9102C19.5 29.0452 19.5 28.2512 19.587 27.6062C19.682 26.8952 19.907 26.1432 20.525 25.5262C21.143 24.9072 21.895 24.6822 22.605 24.5862C23.251 24.5002 24.045 24.5002 24.911 24.5002H24.983C24.943 23.5642 24.818 22.9902 24.414 22.5862C23.828 22.0002 22.886 22.0002 21 22.0002C19.114 22.0002 18.172 22.0002 17.586 22.5862C17 23.1722 17 24.1142 17 26.0002V35.2502H16ZM23.25 29.0002C23.25 28.8013 23.329 28.6105 23.4697 28.4698C23.6103 28.3292 23.8011 28.2502 24 28.2502H28C28.1989 28.2502 28.3897 28.3292 28.5303 28.4698C28.671 28.6105 28.75 28.8013 28.75 29.0002C28.75 29.1991 28.671 29.3898 28.5303 29.5305C28.3897 29.6712 28.1989 29.7502 28 29.7502H24C23.8011 29.7502 23.6103 29.6712 23.4697 29.5305C23.329 29.3898 23.25 29.1991 23.25 29.0002ZM23.25 32.0002C23.25 31.8013 23.329 31.6105 23.4697 31.4698C23.6103 31.3292 23.8011 31.2502 24 31.2502H28C28.1989 31.2502 28.3897 31.3292 28.5303 31.4698C28.671 31.6105 28.75 31.8013 28.75 32.0002C28.75 32.1991 28.671 32.3899 28.5303 32.5305C28.3897 32.6712 28.1989 32.7502 28 32.7502H24C23.8011 32.7502 23.6103 32.6712 23.4697 32.5305C23.329 32.3899 23.25 32.1991 23.25 32.0002Z" fill="#B63E41"/>
</svg>
