<svg width="120" height="120" viewBox="0 0 120 120" fill="none" xmlns="http://www.w3.org/2000/svg">
<path d="M97.5 27.5L94.4015 77.6255C93.6095 90.432 93.214 96.8355 90.004 101.44C88.4165 103.716 86.3735 105.637 84.0035 107.08C79.2105 110 72.795 110 59.9635 110C47.1156 110 40.6915 110 35.8952 107.074C33.524 105.628 31.48 103.704 29.8934 101.424C26.6844 96.813 26.2972 90.4005 25.523 77.576L22.5 27.5" stroke="#B63E41" stroke-width="6" stroke-linecap="round"/>
<path d="M15 27.5H105M80.2785 27.5L76.8655 20.4587C74.598 15.7813 73.464 13.4426 71.5085 11.9841C71.075 11.6605 70.6155 11.3727 70.135 11.1235C67.9695 10 65.3705 10 60.1725 10C54.844 10 52.18 10 49.9784 11.1706C49.4905 11.43 49.0249 11.7295 48.5864 12.0659C46.6082 13.5835 45.5032 16.0077 43.2931 20.8563L40.2646 27.5" stroke="#B63E41" stroke-width="6" stroke-linecap="round"/>
</svg>
