<svg width="51" height="51" viewBox="0 0 51 51" fill="none" xmlns="http://www.w3.org/2000/svg">
<rect width="51" height="51" rx="25.5" fill="#FFDDDE"/>
<path d="M34.4 26.0004C35.0365 26.0004 35.647 26.2532 36.0971 26.7033C36.5472 27.1534 36.8 27.7639 36.8 28.4004V34.4004C36.8 35.0369 36.5472 35.6474 36.0971 36.0974C35.647 36.5475 35.0365 36.8004 34.4 36.8004H30.8C30.1635 36.8004 29.5531 36.5475 29.103 36.0974C28.6529 35.6474 28.4 35.0369 28.4 34.4004V28.4004C28.4 27.7639 28.6529 27.1534 29.103 26.7033C29.5531 26.2532 30.1635 26.0004 30.8 26.0004H34.4ZM27.4088 27.2004C27.2716 27.5856 27.201 27.9914 27.2 28.4004V34.4004C27.2 34.74 27.2492 35.0676 27.3368 35.3784C26.4994 35.5272 25.6505 35.6015 24.8 35.6004C22.574 35.6004 20.5004 35.1372 18.962 34.1568C17.3996 33.1608 16.4 31.6284 16.4 29.6004C16.4 28.2648 17.4836 27.2004 18.8108 27.2004H27.4088ZM31.4 28.4004C31.2409 28.4004 31.0883 28.4636 30.9758 28.5761C30.8632 28.6886 30.8 28.8413 30.8 29.0004C30.8 29.1595 30.8632 29.3121 30.9758 29.4247C31.0883 29.5372 31.2409 29.6004 31.4 29.6004H33.8C33.9592 29.6004 34.1118 29.5372 34.2243 29.4247C34.3368 29.3121 34.4 29.1595 34.4 29.0004C34.4 28.8413 34.3368 28.6886 34.2243 28.5761C34.1118 28.4636 33.9592 28.4004 33.8 28.4004H31.4ZM24.8 16.4004C26.0731 16.4004 27.294 16.9061 28.1941 17.8063C29.0943 18.7065 29.6 19.9274 29.6 21.2004C29.6 22.4734 29.0943 23.6943 28.1941 24.5945C27.294 25.4947 26.0731 26.0004 24.8 26.0004C23.527 26.0004 22.3061 25.4947 21.4059 24.5945C20.5057 23.6943 20 22.4734 20 21.2004C20 19.9274 20.5057 18.7065 21.4059 17.8063C22.3061 16.9061 23.527 16.4004 24.8 16.4004Z" fill="#B63E41"/>
</svg>
