<svg width="24" height="24" viewBox="0 0 24 24" fill="none" xmlns="http://www.w3.org/2000/svg">
<path d="M12 22C17.5228 22 22 17.5228 22 12C22 6.47715 17.5228 2 12 2C6.47715 2 2 6.47715 2 12C2 17.5228 6.47715 22 12 22Z" stroke="#262626" stroke-width="1.5"/>
<path d="M7 8.37931H11.5M11.5 8.37931H14.5M11.5 8.37931V7M17 8.37931H14.5M14.5 8.37931C13.9725 10.2656 12.8679 12.0487 11.6071 13.6158M11.6071 13.6158C10.5631 14.9134 9.41205 16.0628 8.39286 17M11.6071 13.6158C10.9643 12.8621 10.0643 11.6426 9.80714 11.0909M11.6071 13.6158L13.5357 15.6207" stroke="#262626" stroke-width="1.5" stroke-linecap="round" stroke-linejoin="round"/>
</svg>
