<svg width="32" height="32" viewBox="0 0 32 32" fill="none" xmlns="http://www.w3.org/2000/svg">
<rect width="32" height="32" rx="8" fill="#FFDDDE"/>
<path d="M16 15.25C16.6213 15.25 17.125 14.7463 17.125 14.125C17.125 13.5037 16.6213 13 16 13C15.3787 13 14.875 13.5037 14.875 14.125C14.875 14.7463 15.3787 15.25 16 15.25Z" fill="#B63E41"/>
<path d="M16 8.5C14.419 8.49992 12.9019 9.12382 11.7784 10.2361C10.6549 11.3484 10.0158 12.8591 10 14.44C10 18.55 15.2875 23.125 15.5125 23.32C15.6483 23.4362 15.8212 23.5 16 23.5C16.1788 23.5 16.3517 23.4362 16.4875 23.32C16.75 23.125 22 18.55 22 14.44C21.9842 12.8591 21.3451 11.3484 20.2216 10.2361C19.0981 9.12382 17.581 8.49992 16 8.5ZM16 16.75C15.4808 16.75 14.9733 16.596 14.5416 16.3076C14.1099 16.0192 13.7735 15.6092 13.5748 15.1295C13.3761 14.6499 13.3242 14.1221 13.4254 13.6129C13.5267 13.1037 13.7767 12.636 14.1438 12.2688C14.511 11.9017 14.9787 11.6517 15.4879 11.5504C15.9971 11.4492 16.5249 11.5011 17.0045 11.6998C17.4842 11.8985 17.8942 12.2349 18.1826 12.6666C18.471 13.0983 18.625 13.6058 18.625 14.125C18.625 14.8212 18.3484 15.4889 17.8562 15.9812C17.3639 16.4734 16.6962 16.75 16 16.75Z" fill="#B63E41"/>
</svg>
