<svg width="24" height="24" viewBox="0 0 24 24" fill="none" xmlns="http://www.w3.org/2000/svg">
<path d="M14.5 6C14.4534 4.90658 14.3147 4.20985 13.9025 3.67376C13.7426 3.46574 13.5561 3.27954 13.3476 3.11992C12.5381 2.5 11.363 2.5 9.01284 2.5H8.51182C5.67784 2.5 4.26085 2.5 3.38044 3.37867C2.50004 4.25734 2.50002 5.67157 2.50001 8.49997L2.5 15.5C2.49999 18.3284 2.49998 19.7426 3.3804 20.6213C4.26081 21.5 5.67781 21.5 8.51182 21.5H9.01279C11.363 21.5 12.5381 21.5 13.3476 20.8801C13.556 20.7205 13.7426 20.5343 13.9025 20.3263C14.3147 19.7901 14.4534 19.0933 14.5 17.9996" stroke="#B63E41" stroke-width="1.5" stroke-linecap="round" stroke-linejoin="round"/>
<path d="M20.5 11.9999H8.5M18 15.5C18 15.5 21.5 12.9223 21.5 12C21.5 11.0777 18 8.5 18 8.5" stroke="#B63E41" stroke-width="1.5" stroke-linecap="round" stroke-linejoin="round"/>
</svg>
