<svg width="32" height="32" viewBox="0 0 32 32" fill="none" xmlns="http://www.w3.org/2000/svg">
<rect width="32" height="32" rx="8" fill="#FFDDDE"/>
<path d="M8.65122 16.0719C8.91479 16.3354 9.17836 16.4184 9.69843 16.4184L15.4012 16.4486C15.4539 16.4486 15.4989 16.4486 15.5218 16.4785C15.5443 16.501 15.5516 16.5463 15.5516 16.5916L15.5741 22.3021C15.5819 22.8219 15.6648 23.0854 15.9284 23.349C16.2826 23.7106 16.7798 23.6505 17.1488 23.2889C17.3449 23.0928 17.503 22.7692 17.6461 22.4677L23.4093 10.0377C23.7105 9.40512 23.6729 8.93776 23.3643 8.62887C23.0625 8.32769 22.5954 8.29008 21.9629 8.59126L9.53258 14.3545C9.23108 14.4975 8.9074 14.6557 8.71133 14.8517C8.34972 15.2207 8.28961 15.7106 8.65122 16.0722" fill="#B63E41"/>
</svg>
