<svg width="51" height="51" viewBox="0 0 51 51" fill="none" xmlns="http://www.w3.org/2000/svg">
<rect width="51" height="51" rx="25.5" fill="#FFDDDE"/>
<path fill-rule="evenodd" clip-rule="evenodd" d="M16.485 26.25C16.485 26.0511 16.564 25.8603 16.7047 25.7197C16.8453 25.579 17.0361 25.5 17.235 25.5C22.625 25.5 26.993 29.865 26.993 35.25C26.993 35.449 26.9139 35.6399 26.7732 35.7807C26.6324 35.9214 26.4415 36.0005 26.2425 36.0005C26.0434 36.0005 25.8525 35.9214 25.7118 35.7807C25.5711 35.6399 25.492 35.449 25.492 35.25C25.492 30.694 21.795 27 17.235 27C17.0361 27 16.8453 26.921 16.7047 26.7803C16.564 26.6397 16.485 26.4489 16.485 26.25ZM17.235 28.5C17.0361 28.5 16.8453 28.579 16.7047 28.7197C16.564 28.8603 16.485 29.0511 16.485 29.25C16.485 29.4489 16.564 29.6397 16.7047 29.7803C16.8453 29.921 17.0361 30 17.235 30C17.9248 29.9995 18.6079 30.1349 19.2453 30.3985C19.8827 30.6621 20.462 31.0487 20.9499 31.5363C21.4378 32.0238 21.8249 32.6028 22.089 33.24C22.3531 33.8772 22.489 34.5602 22.489 35.25C22.489 35.4492 22.5681 35.6402 22.7089 35.781C22.8498 35.9219 23.0408 36.001 23.24 36.001C23.4392 36.001 23.6302 35.9219 23.771 35.781C23.9119 35.6402 23.991 35.4492 23.991 35.25C23.9906 34.3632 23.8155 33.4851 23.4758 32.666C23.1361 31.8468 22.6383 31.1026 22.011 30.4758C21.3836 29.849 20.6389 29.3519 19.8195 29.0129C19 28.6739 18.1218 28.4996 17.235 28.5ZM16.485 32.25C16.485 32.0511 16.564 31.8603 16.7047 31.7197C16.8453 31.579 17.0361 31.5 17.235 31.5C17.7277 31.4996 18.2157 31.5963 18.671 31.7846C19.1263 31.9729 19.54 32.249 19.8886 32.5973C20.2371 32.9455 20.5136 33.3591 20.7022 33.8142C20.8909 34.2694 20.988 34.7573 20.988 35.25C20.988 35.449 20.9089 35.6399 20.7682 35.7807C20.6274 35.9214 20.4365 36.0005 20.2375 36.0005C20.0384 36.0005 19.8475 35.9214 19.7068 35.7807C19.5661 35.6399 19.487 35.449 19.487 35.25C19.487 34.9544 19.4287 34.6616 19.3155 34.3885C19.2023 34.1154 19.0364 33.8673 18.8273 33.6583C18.6181 33.4493 18.3699 33.2837 18.0966 33.1707C17.8234 33.0577 17.5306 32.9997 17.235 33C17.0361 33 16.8453 32.921 16.7047 32.7803C16.564 32.6397 16.485 32.4489 16.485 32.25Z" fill="#B63E41"/>
<path d="M16 24.369C16.355 24.136 16.78 24 17.235 24C23.453 24 28.495 29.037 28.495 35.25C28.495 35.513 28.449 35.765 28.366 36C31.893 35.999 33.694 35.96 34.828 34.788C36 33.576 36 31.626 36 27.725V26.204C36 23.915 36 22.771 35.48 21.823C34.96 20.875 34.012 20.286 32.113 19.108L30.11 17.867C28.104 16.622 27.101 16 25.992 16C24.883 16 23.88 16.622 21.872 17.867L19.872 19.108C17.972 20.286 17.023 20.874 16.504 21.823C16.146 22.476 16.034 23.221 16 24.368" fill="#B63E41"/>
</svg>
